<svg width="20" height="25" viewBox="0 0 20 25" fill="none" xmlns="http://www.w3.org/2000/svg">
<path d="M4.89339 23.905C4.41429 23.5843 3.98886 23.1915 3.63333 22.7378C3.24538 22.2678 2.8858 21.7735 2.55559 21.2619C1.77969 20.1251 1.17296 18.8816 0.752596 17.5712C0.246138 16.0467 0 14.587 0 13.1589C0 11.5653 0.344391 10.1747 1.01494 9.0074C1.51127 8.09387 2.2507 7.32955 3.14206 6.7926C4.00304 6.25463 5.00583 5.96027 6.01874 5.93997C6.37326 5.93997 6.75817 5.99072 7.16334 6.09223C7.45708 6.17343 7.8116 6.30538 8.24716 6.46779C8.80426 6.68095 9.10814 6.8129 9.20943 6.84335C9.53356 6.96516 9.80705 7.01591 10.0198 7.01591C10.1818 7.01591 10.4148 6.96516 10.6731 6.88395C10.82 6.8332 11.0985 6.74185 11.4936 6.56929C11.8845 6.42719 12.1945 6.30538 12.4406 6.21403C12.8154 6.10238 13.178 6.00087 13.5042 5.95012C13.8992 5.88922 14.2912 5.86892 14.667 5.89937C15.3862 5.95012 16.0446 6.10238 16.6321 6.32569C17.6652 6.74185 18.4989 7.39147 19.1208 8.31515C18.8574 8.47755 18.6143 8.66635 18.3864 8.87342C17.8932 9.30988 17.4748 9.82755 17.1406 10.401C16.705 11.1826 16.4822 12.0657 16.4882 12.9589C16.5034 14.0582 16.782 15.0245 17.3391 15.8619C17.7311 16.4709 18.2548 16.9927 18.8929 17.421C19.2069 17.6342 19.4824 17.7813 19.7437 17.8778C19.6222 18.2584 19.4885 18.6289 19.3335 18.9943C18.982 19.8134 18.5637 20.5981 18.0674 21.339C17.6298 21.9785 17.2854 22.4556 17.0241 22.7702C16.6169 23.2574 16.2239 23.6229 15.8288 23.8837C15.3933 24.173 14.8818 24.3263 14.3581 24.3263C14.0036 24.3415 13.649 24.2958 13.3107 24.1974C13.017 24.1009 12.7273 23.9923 12.4437 23.8695C12.1469 23.7335 11.84 23.6178 11.527 23.5244C11.1421 23.4229 10.747 23.3742 10.3479 23.3752C9.94278 23.3752 9.54774 23.4259 9.17296 23.5224C8.85896 23.6117 8.55508 23.7213 8.25425 23.8523C7.82882 24.0299 7.55027 24.1466 7.38821 24.1974C7.06002 24.2948 6.72373 24.3537 6.38542 24.375C5.8587 24.375 5.36845 24.2227 4.88023 23.9182L4.89339 23.905ZM11.8359 5.16753C11.1471 5.51264 10.4928 5.65881 9.83743 5.61009C9.73614 4.95438 9.83743 4.28039 10.1109 3.54246C10.354 2.91314 10.6782 2.34473 11.1238 1.83721C11.5898 1.30939 12.1469 0.872928 12.7749 0.558268C13.4434 0.213157 14.0816 0.030451 14.6893 0C14.7703 0.690222 14.6893 1.37029 14.4361 2.10112C14.2051 2.75074 13.8607 3.34961 13.4232 3.88758C12.9825 4.41539 12.4356 4.85186 11.8167 5.16652L11.8359 5.16753Z" fill="white"/>
</svg>
