<svg width="22" height="22" viewBox="0 0 22 22" fill="none" xmlns="http://www.w3.org/2000/svg">
<path fill-rule="evenodd" clip-rule="evenodd" d="M0 6.20455C0 2.79033 2.79033 0 6.20455 0H15.2955C18.7097 0 21.5 2.79033 21.5 6.20455V15.2955C21.5 18.7097 18.7097 21.5 15.2955 21.5H6.20455C2.79033 21.5 0 18.7097 0 15.2955V6.20455ZM6.20455 1.5C3.61876 1.5 1.5 3.61876 1.5 6.20455V15.2955C1.5 17.8812 3.61876 20 6.20455 20H15.2955C17.8812 20 20 17.8812 20 15.2955V6.20455C20 3.61876 17.8812 1.5 15.2955 1.5H6.20455ZM10.75 14.25C12.683 14.25 14.25 12.683 14.25 10.75C14.25 8.817 12.683 7.25 10.75 7.25C8.817 7.25 7.25 8.817 7.25 10.75C7.25 12.683 8.817 14.25 10.75 14.25ZM10.75 15.75C13.5114 15.75 15.75 13.5114 15.75 10.75C15.75 7.98858 13.5114 5.75 10.75 5.75C7.98858 5.75 5.75 7.98858 5.75 10.75C5.75 13.5114 7.98858 15.75 10.75 15.75ZM15.75 5.75C16.3023 5.75 16.75 5.30228 16.75 4.75C16.75 4.19771 16.3023 3.75 15.75 3.75C15.1977 3.75 14.75 4.19771 14.75 4.75C14.75 5.30228 15.1977 5.75 15.75 5.75Z" fill="#6E7491"/>
</svg>
