<svg width="17" height="16" viewBox="0 0 17 16" fill="none" xmlns="http://www.w3.org/2000/svg">
<path d="M7.73468 0.235917C7.93032 -0.0787407 8.38828 -0.0787415 8.58392 0.235916L11.0673 4.23005C11.1361 4.34076 11.2455 4.42021 11.372 4.45147L15.9381 5.57903C16.2978 5.66786 16.4393 6.1034 16.2005 6.3867L13.1693 9.98278C13.0852 10.0825 13.0435 10.211 13.0529 10.341L13.3915 15.032C13.4181 15.4016 13.0477 15.6708 12.7044 15.5312L8.34765 13.7596C8.22688 13.7105 8.09172 13.7105 7.97096 13.7596L3.61418 15.5312C3.27095 15.6708 2.90046 15.4016 2.92713 15.032L3.26574 10.341C3.27513 10.211 3.23336 10.0825 3.14934 9.98278L0.118092 6.3867C-0.120709 6.1034 0.0208069 5.66786 0.38052 5.57903L4.94657 4.45147C5.07313 4.42021 5.18249 4.34076 5.25132 4.23005L7.73468 0.235917Z" fill="url(#paint0_linear_2741_1836)"/>
<defs>
<linearGradient id="paint0_linear_2741_1836" x1="8.1593" y1="-0.447021" x2="8.1593" y2="17.553" gradientUnits="userSpaceOnUse">
<stop stop-color="#605DEC"/>
<stop offset="1" stop-color="#2A26D9"/>
</linearGradient>
</defs>
</svg>
