<svg width="17" height="16" viewBox="0 0 17 16" fill="none" xmlns="http://www.w3.org/2000/svg">
<path d="M10.2179 4.75806C10.4243 5.09008 10.7524 5.3283 11.132 5.42212L14.9171 6.35669L12.4044 9.33813C12.1524 9.63716 12.0276 10.0233 12.0558 10.4133L12.3351 14.301L8.72473 12.8333L8.58704 12.7844C8.30807 12.7015 8.01053 12.7015 7.73157 12.7844L7.59387 12.8333L3.98254 14.301L4.26282 10.4133C4.29097 10.0233 4.16622 9.63716 3.91418 9.33813L1.40051 6.35669L5.18665 5.42212C5.56618 5.3283 5.89427 5.09008 6.10071 4.75806L8.1593 1.44653L10.2179 4.75806Z" stroke="url(#paint0_linear_2741_1856)" stroke-width="2"/>
<defs>
<linearGradient id="paint0_linear_2741_1856" x1="8.1593" y1="-0.447021" x2="8.1593" y2="17.553" gradientUnits="userSpaceOnUse">
<stop stop-color="#605DEC"/>
<stop offset="1" stop-color="#2A26D9"/>
</linearGradient>
</defs>
</svg>
